<svg id="Layer_1" data-name="Layer 1" xmlns="http://www.w3.org/2000/svg" viewBox="0 0 60 60"><rect width="60" height="60" rx="30" style="fill:#e0e0e0"/><g style="opacity:0.9"><path d="M43.75,19c-.18,1.29-.4,2.89-.65,4.48q-.66,4.32-1.34,8.62l-1.38,8.7a5.64,5.64,0,0,1-.2.81A1.86,1.86,0,0,1,37.81,43a9.08,9.08,0,0,1-3.18-1.52C32,39.71,29.36,38,26.89,36.1c-.93-.73-1.17-1.61-.59-2.34a7,7,0,0,1,1.25-1.25c.85-.66,1.6-1.44,2.38-2.18.54-.51,1.1-1,1.64-1.52,1.18-1.13,2.35-2.28,3.52-3.42.37-.36,1.24-1.45.88-1.82s-1.85.53-2.44.93q-5.72,3.83-11.43,7.7a4,4,0,0,1-3.2.5,61.77,61.77,0,0,1-6-1.86.9.9,0,0,1-.33-1.59,4.19,4.19,0,0,1,1.51-.89q9.24-3.81,18.46-7.62c2.17-.9,4.32-1.86,6.5-2.73a13.44,13.44,0,0,1,2.68-1C43.12,16.78,43.78,17.32,43.75,19Z" style="fill:#172636"/></g></svg>